# 3ds Max Wavefront OBJ Exporter v0.97b - (c)2007 guruware
# File Created: 19.11.2013 22:12:53

mtllib sign_02.mtl

#
# object sign_02
#

v  -2.4332 32.7118 1.7136
v  1.1958 32.7118 1.7136
v  1.1958 32.7118 -1.3925
v  -2.4332 32.7118 -1.3925
v  1.4961 0.0000 1.1668
v  0.6419 15.5557 1.3111
v  -2.5253 15.5557 1.3111
v  -2.4958 0.0000 1.1668
v  1.4961 0.0000 -1.9393
v  0.6419 15.5557 -1.1532
v  -2.4958 0.0000 -1.9393
v  -2.5253 15.5557 -1.1532
v  -9.6785 31.0801 -1.6693
v  -12.5176 28.4211 -1.6736
v  -12.6210 28.5290 -0.0633
v  -9.7819 31.1879 -0.0590
v  10.9663 27.6268 1.5119
v  11.0697 27.5190 -0.0984
v  8.4656 30.3861 -0.4577
v  8.3622 30.4940 1.1526
v  -10.0169 25.6618 0.2959
v  -9.9135 25.5540 -1.3144
v  8.2305 24.8600 -0.1027
v  8.1271 24.9678 1.5076
v  -1.3410 23.1399 -9.3249
v  -2.0295 20.2687 -11.8573
v  -3.6173 20.4082 -11.5838
v  -2.9288 23.2795 -9.0515
v  0.4782 21.3849 11.6956
v  2.0660 21.2454 11.4221
v  1.8094 23.8913 8.5823
v  0.2216 24.0308 8.8558
v  -3.3607 17.7624 -8.7440
v  -1.7729 17.6229 -9.0175
v  1.3775 18.3742 8.8897
v  -0.2103 18.5137 9.1632
# 36 vertices

vn 0.0000 1.0000 -0.0000
vn 0.0000 -0.0186 0.9998
vn 0.0000 -0.0325 0.9995
vn 0.0000 -0.0327 0.9995
vn 0.9940 0.1092 -0.0000
vn 0.9997 0.0244 -0.0000
vn 0.9998 0.0207 -0.0000
vn 0.0000 0.1006 -0.9949
vn 0.0000 0.0366 -0.9993
vn 0.0000 0.0373 -0.9993
vn -1.0000 -0.0038 -0.0000
vn -1.0000 0.0036 -0.0000
vn -1.0000 0.0033 -0.0000
vn 0.0000 -0.0469 0.9989
vn 0.9979 -0.0644 -0.0000
vn 0.0000 -0.0279 -0.9996
vn -0.9999 0.0107 -0.0000
vn -0.4233 0.9042 -0.0575
vn -0.9939 0.0873 -0.0668
vn -0.9977 -0.0255 -0.0632
vn 0.9939 -0.0873 0.0668
vn 0.9977 0.0255 0.0632
vn 0.4821 0.8761 0.0016
vn -0.0635 0.1325 0.9891
vn -0.0213 -0.9993 0.0321
vn 0.0635 -0.1325 -0.9891
vn 0.0213 0.9993 -0.0321
vn -0.4821 -0.8761 -0.0016
vn 0.4233 -0.9042 0.0575
vn -0.0449 0.8742 -0.4834
vn -0.1679 0.0391 -0.9850
vn -0.1733 -0.1063 -0.9791
vn 0.1679 -0.0391 0.9850
vn 0.1733 0.1063 0.9791
vn 0.1106 0.9047 0.4115
vn -0.9710 0.1707 0.1673
vn -0.0391 -0.9988 0.0278
vn 0.9710 -0.1707 -0.1673
vn 0.0391 0.9988 -0.0278
vn -0.1106 -0.9047 -0.4115
vn 0.0449 -0.8742 0.4834
# 41 vertex normals

vt 0.6464 0.6713 0.0000
vt 0.6376 0.4613 0.0000
vt 0.8337 0.4544 0.0000
vt 0.8425 0.6645 0.0000
vt 0.2298 0.0454 0.0000
vt 0.2770 0.4183 0.0000
vt 0.1407 0.4472 0.0000
vt 0.0370 0.0934 0.0000
vt 0.3846 0.0275 0.0000
vt 0.3857 0.4032 0.0000
vt 0.5805 0.0521 0.0000
vt 0.5197 0.4172 0.0000
vt 0.7317 0.0934 0.0000
vt 0.6216 0.4444 0.0000
vt 0.3175 0.5920 0.0000
vt 0.1831 0.6219 0.0000
vt 0.3838 0.5490 0.0000
vt 0.4745 0.5844 0.0000
vt 0.5858 0.6161 0.0000
vt 0.9573 0.7822 0.0000
vt 0.9573 0.8366 0.0000
vt 0.8603 0.8366 0.0000
vt 0.8603 0.7822 0.0000
vt 0.8604 0.4045 0.0000
vt 0.9574 0.4045 0.0000
vt 0.9574 0.4589 0.0000
vt 0.8604 0.4589 0.0000
vt 0.0141 0.8386 0.0000
vt 0.8241 0.8386 0.0000
vt 0.7307 0.9736 0.0000
vt 0.1076 0.9736 0.0000
vt 0.8603 0.0269 0.0000
vt 0.9572 0.0269 0.0000
vt 0.9574 0.3501 0.0000
vt 0.8604 0.3501 0.0000
vt 0.7307 0.7036 0.0000
vt 0.1076 0.7036 0.0000
vt 0.9572 0.8910 0.0000
vt 0.8603 0.8910 0.0000
# 39 texture coords

g sign_02
usemtl 02___Defaultsssasawewessds
s 4
f 1/1/1 2/2/1 3/3/1 4/4/1 
s 8
f 5/5/2 6/6/3 7/7/4 8/8/2 
s 16
f 9/9/5 10/10/6 6/6/7 5/5/5 
s 32
f 11/11/8 12/12/9 10/10/10 9/9/8 
s 64
f 8/13/11 7/14/12 12/12/13 11/11/11 
s 8
f 2/15/14 1/16/14 7/7/4 6/6/3 
s 16
f 3/17/15 2/15/15 6/6/7 10/10/6 
s 32
f 4/18/16 3/17/16 10/10/10 12/12/9 
s 64
f 1/19/17 4/18/17 12/12/13 7/14/12 
s 2
f 13/20/18 14/21/19 15/22/20 16/23/18 
s 4
f 17/24/21 18/25/22 19/26/23 20/27/23 
s 8
f 15/28/24 17/29/24 20/30/24 16/31/24 
s 16
f 21/32/25 22/33/25 23/34/25 24/35/25 
s 32
f 14/28/26 18/29/26 23/36/26 22/37/26 
s 64
f 13/20/27 16/23/27 20/27/27 19/26/27 
s 2
f 22/38/28 21/39/28 15/22/20 14/21/19 
s 4
f 24/35/29 23/34/29 18/25/22 17/24/21 
s 8
f 21/37/24 24/36/24 17/29/24 15/28/24 
s 32
f 13/31/26 19/30/26 18/29/26 14/28/26 
s 2
f 25/20/30 26/21/31 27/22/32 28/23/30 
s 4
f 29/24/33 30/25/34 31/26/35 32/27/35 
s 8
f 27/28/36 29/29/36 32/30/36 28/31/36 
s 16
f 33/32/37 34/33/37 35/34/37 36/35/37 
s 32
f 26/28/38 30/29/38 35/36/38 34/37/38 
s 64
f 25/20/39 28/23/39 32/27/39 31/26/39 
s 2
f 34/38/40 33/39/40 27/22/32 26/21/31 
s 4
f 36/35/41 35/34/41 30/25/34 29/24/33 
s 8
f 33/37/36 36/36/36 29/29/36 27/28/36 
s 32
f 25/31/38 31/30/38 30/29/38 26/28/38 
# 29 polygons

